<mxfile host="app.diagrams.net" modified="2023-10-18T03:38:37.064Z" agent="Mozilla/5.0 (Windows NT 10.0; Win64; x64) AppleWebKit/537.36 (KHTML, like Gecko) Chrome/118.0.0.0 Safari/537.36 Edg/118.0.2088.46" etag="_lMdLbinSeFhk7nRiMJM" version="22.0.4" type="device">
  <diagram id="C5RBs43oDa-KdzZeNtuy" name="Page-1">
    <mxGraphModel dx="1040" dy="614" grid="1" gridSize="10" guides="1" tooltips="1" connect="1" arrows="1" fold="1" page="1" pageScale="1" pageWidth="827" pageHeight="1169" math="0" shadow="0">
      <root>
        <mxCell id="WIyWlLk6GJQsqaUBKTNV-0" />
        <mxCell id="WIyWlLk6GJQsqaUBKTNV-1" parent="WIyWlLk6GJQsqaUBKTNV-0" />
        <mxCell id="TDjgzzHBPnL62QPkVUbp-14" style="edgeStyle=orthogonalEdgeStyle;rounded=0;orthogonalLoop=1;jettySize=auto;html=1;entryX=0.5;entryY=0;entryDx=0;entryDy=0;" edge="1" parent="WIyWlLk6GJQsqaUBKTNV-1" source="TDjgzzHBPnL62QPkVUbp-0" target="TDjgzzHBPnL62QPkVUbp-2">
          <mxGeometry relative="1" as="geometry" />
        </mxCell>
        <mxCell id="TDjgzzHBPnL62QPkVUbp-0" value="Inicio" style="rounded=1;whiteSpace=wrap;html=1;arcSize=50;" vertex="1" parent="WIyWlLk6GJQsqaUBKTNV-1">
          <mxGeometry x="190" y="530" width="120" height="40" as="geometry" />
        </mxCell>
        <mxCell id="TDjgzzHBPnL62QPkVUbp-1" value="Fin" style="rounded=1;whiteSpace=wrap;html=1;arcSize=50;" vertex="1" parent="WIyWlLk6GJQsqaUBKTNV-1">
          <mxGeometry x="200" y="1310" width="120" height="40" as="geometry" />
        </mxCell>
        <mxCell id="TDjgzzHBPnL62QPkVUbp-13" style="edgeStyle=orthogonalEdgeStyle;rounded=0;orthogonalLoop=1;jettySize=auto;html=1;entryX=0.5;entryY=0;entryDx=0;entryDy=0;" edge="1" parent="WIyWlLk6GJQsqaUBKTNV-1" source="TDjgzzHBPnL62QPkVUbp-2" target="TDjgzzHBPnL62QPkVUbp-3">
          <mxGeometry relative="1" as="geometry" />
        </mxCell>
        <mxCell id="TDjgzzHBPnL62QPkVUbp-2" value="String paises =&amp;nbsp;[&quot;México&quot;, &quot;Guatemala&quot;, &quot;El Salvador&quot;,&quot;Panamá&quot;]" style="shape=parallelogram;perimeter=parallelogramPerimeter;whiteSpace=wrap;html=1;fixedSize=1;" vertex="1" parent="WIyWlLk6GJQsqaUBKTNV-1">
          <mxGeometry x="40" y="600" width="420" height="40" as="geometry" />
        </mxCell>
        <mxCell id="TDjgzzHBPnL62QPkVUbp-12" style="edgeStyle=orthogonalEdgeStyle;rounded=0;orthogonalLoop=1;jettySize=auto;html=1;entryX=0.5;entryY=0;entryDx=0;entryDy=0;" edge="1" parent="WIyWlLk6GJQsqaUBKTNV-1" source="TDjgzzHBPnL62QPkVUbp-3" target="TDjgzzHBPnL62QPkVUbp-4">
          <mxGeometry relative="1" as="geometry" />
        </mxCell>
        <mxCell id="TDjgzzHBPnL62QPkVUbp-3" value="&lt;div&gt;Int palabraMayor = paises[0]&lt;/div&gt;&lt;div&gt;Int cantidadLetrasMayor = palabraMayor.length&lt;span style=&quot;&quot;&gt;&lt;/span&gt;&lt;/div&gt;&lt;div&gt;&lt;span style=&quot;&quot;&gt;Int cantidadLetras = 0&lt;/span&gt;&lt;/div&gt;&lt;div&gt;&lt;span style=&quot;&quot;&gt;Int i = 0&lt;/span&gt;&lt;/div&gt;" style="rounded=0;whiteSpace=wrap;html=1;align=left;" vertex="1" parent="WIyWlLk6GJQsqaUBKTNV-1">
          <mxGeometry x="100" y="670" width="300" height="60" as="geometry" />
        </mxCell>
        <mxCell id="TDjgzzHBPnL62QPkVUbp-11" style="edgeStyle=orthogonalEdgeStyle;rounded=0;orthogonalLoop=1;jettySize=auto;html=1;entryX=0.5;entryY=0;entryDx=0;entryDy=0;" edge="1" parent="WIyWlLk6GJQsqaUBKTNV-1" source="TDjgzzHBPnL62QPkVUbp-4" target="TDjgzzHBPnL62QPkVUbp-5">
          <mxGeometry relative="1" as="geometry">
            <Array as="points">
              <mxPoint x="365" y="810" />
            </Array>
          </mxGeometry>
        </mxCell>
        <mxCell id="TDjgzzHBPnL62QPkVUbp-23" value="true" style="edgeLabel;html=1;align=center;verticalAlign=middle;resizable=0;points=[];" vertex="1" connectable="0" parent="TDjgzzHBPnL62QPkVUbp-11">
          <mxGeometry x="-0.1017" y="1" relative="1" as="geometry">
            <mxPoint as="offset" />
          </mxGeometry>
        </mxCell>
        <mxCell id="TDjgzzHBPnL62QPkVUbp-19" style="edgeStyle=orthogonalEdgeStyle;rounded=0;orthogonalLoop=1;jettySize=auto;html=1;entryX=0;entryY=0.5;entryDx=0;entryDy=0;" edge="1" parent="WIyWlLk6GJQsqaUBKTNV-1" source="TDjgzzHBPnL62QPkVUbp-4" target="TDjgzzHBPnL62QPkVUbp-18">
          <mxGeometry relative="1" as="geometry">
            <Array as="points">
              <mxPoint x="80" y="810" />
              <mxPoint x="80" y="1240" />
            </Array>
          </mxGeometry>
        </mxCell>
        <mxCell id="TDjgzzHBPnL62QPkVUbp-24" value="false" style="edgeLabel;html=1;align=center;verticalAlign=middle;resizable=0;points=[];" vertex="1" connectable="0" parent="TDjgzzHBPnL62QPkVUbp-19">
          <mxGeometry x="-0.5514" y="-3" relative="1" as="geometry">
            <mxPoint as="offset" />
          </mxGeometry>
        </mxCell>
        <mxCell id="TDjgzzHBPnL62QPkVUbp-4" value="i &amp;lt; paises.length" style="rhombus;whiteSpace=wrap;html=1;" vertex="1" parent="WIyWlLk6GJQsqaUBKTNV-1">
          <mxGeometry x="155" y="770" width="190" height="80" as="geometry" />
        </mxCell>
        <mxCell id="TDjgzzHBPnL62QPkVUbp-10" style="edgeStyle=orthogonalEdgeStyle;rounded=0;orthogonalLoop=1;jettySize=auto;html=1;entryX=0.5;entryY=0;entryDx=0;entryDy=0;" edge="1" parent="WIyWlLk6GJQsqaUBKTNV-1" source="TDjgzzHBPnL62QPkVUbp-5" target="TDjgzzHBPnL62QPkVUbp-6">
          <mxGeometry relative="1" as="geometry" />
        </mxCell>
        <mxCell id="TDjgzzHBPnL62QPkVUbp-5" value="cantidadLetras = paises[i].length" style="rounded=0;whiteSpace=wrap;html=1;align=center;" vertex="1" parent="WIyWlLk6GJQsqaUBKTNV-1">
          <mxGeometry x="270" y="880" width="190" height="40" as="geometry" />
        </mxCell>
        <mxCell id="TDjgzzHBPnL62QPkVUbp-9" style="edgeStyle=orthogonalEdgeStyle;rounded=0;orthogonalLoop=1;jettySize=auto;html=1;entryX=0.5;entryY=0;entryDx=0;entryDy=0;" edge="1" parent="WIyWlLk6GJQsqaUBKTNV-1" source="TDjgzzHBPnL62QPkVUbp-6" target="TDjgzzHBPnL62QPkVUbp-8">
          <mxGeometry relative="1" as="geometry">
            <Array as="points">
              <mxPoint x="525" y="980" />
            </Array>
          </mxGeometry>
        </mxCell>
        <mxCell id="TDjgzzHBPnL62QPkVUbp-21" value="true" style="edgeLabel;html=1;align=center;verticalAlign=middle;resizable=0;points=[];" vertex="1" connectable="0" parent="TDjgzzHBPnL62QPkVUbp-9">
          <mxGeometry x="-0.3944" y="-4" relative="1" as="geometry">
            <mxPoint as="offset" />
          </mxGeometry>
        </mxCell>
        <mxCell id="TDjgzzHBPnL62QPkVUbp-17" style="edgeStyle=orthogonalEdgeStyle;rounded=0;orthogonalLoop=1;jettySize=auto;html=1;entryX=0.5;entryY=0;entryDx=0;entryDy=0;" edge="1" parent="WIyWlLk6GJQsqaUBKTNV-1" source="TDjgzzHBPnL62QPkVUbp-6" target="TDjgzzHBPnL62QPkVUbp-15">
          <mxGeometry relative="1" as="geometry">
            <Array as="points">
              <mxPoint x="230" y="980" />
              <mxPoint x="230" y="1110" />
              <mxPoint x="365" y="1110" />
            </Array>
          </mxGeometry>
        </mxCell>
        <mxCell id="TDjgzzHBPnL62QPkVUbp-22" value="false" style="edgeLabel;html=1;align=center;verticalAlign=middle;resizable=0;points=[];" vertex="1" connectable="0" parent="TDjgzzHBPnL62QPkVUbp-17">
          <mxGeometry x="-0.2637" y="-2" relative="1" as="geometry">
            <mxPoint as="offset" />
          </mxGeometry>
        </mxCell>
        <mxCell id="TDjgzzHBPnL62QPkVUbp-6" value="cantidadLetras &amp;gt; cantidadLetrasMayor" style="rhombus;whiteSpace=wrap;html=1;" vertex="1" parent="WIyWlLk6GJQsqaUBKTNV-1">
          <mxGeometry x="270" y="940" width="190" height="80" as="geometry" />
        </mxCell>
        <mxCell id="TDjgzzHBPnL62QPkVUbp-16" style="edgeStyle=orthogonalEdgeStyle;rounded=0;orthogonalLoop=1;jettySize=auto;html=1;entryX=0.5;entryY=0;entryDx=0;entryDy=0;" edge="1" parent="WIyWlLk6GJQsqaUBKTNV-1" source="TDjgzzHBPnL62QPkVUbp-8" target="TDjgzzHBPnL62QPkVUbp-15">
          <mxGeometry relative="1" as="geometry">
            <Array as="points">
              <mxPoint x="525" y="1110" />
              <mxPoint x="365" y="1110" />
            </Array>
          </mxGeometry>
        </mxCell>
        <mxCell id="TDjgzzHBPnL62QPkVUbp-8" value="&lt;div&gt;palabraMayor = paises[i]&lt;/div&gt;&lt;div&gt;cantidadLetrasMayor = cantidadLetras&lt;span style=&quot;&quot;&gt;&lt;/span&gt;&lt;/div&gt;" style="rounded=0;whiteSpace=wrap;html=1;align=center;" vertex="1" parent="WIyWlLk6GJQsqaUBKTNV-1">
          <mxGeometry x="410" y="1020" width="230" height="40" as="geometry" />
        </mxCell>
        <mxCell id="TDjgzzHBPnL62QPkVUbp-20" style="edgeStyle=orthogonalEdgeStyle;rounded=0;orthogonalLoop=1;jettySize=auto;html=1;" edge="1" parent="WIyWlLk6GJQsqaUBKTNV-1" source="TDjgzzHBPnL62QPkVUbp-15">
          <mxGeometry relative="1" as="geometry">
            <mxPoint x="250" y="750" as="targetPoint" />
            <Array as="points">
              <mxPoint x="365" y="1220" />
              <mxPoint x="670" y="1220" />
              <mxPoint x="670" y="750" />
            </Array>
          </mxGeometry>
        </mxCell>
        <mxCell id="TDjgzzHBPnL62QPkVUbp-15" value="&lt;div&gt;i++&lt;/div&gt;" style="rounded=0;whiteSpace=wrap;html=1;align=center;" vertex="1" parent="WIyWlLk6GJQsqaUBKTNV-1">
          <mxGeometry x="330" y="1140" width="70" height="40" as="geometry" />
        </mxCell>
        <mxCell id="TDjgzzHBPnL62QPkVUbp-25" style="edgeStyle=orthogonalEdgeStyle;rounded=0;orthogonalLoop=1;jettySize=auto;html=1;entryX=0.5;entryY=0;entryDx=0;entryDy=0;" edge="1" parent="WIyWlLk6GJQsqaUBKTNV-1" source="TDjgzzHBPnL62QPkVUbp-18" target="TDjgzzHBPnL62QPkVUbp-1">
          <mxGeometry relative="1" as="geometry" />
        </mxCell>
        <mxCell id="TDjgzzHBPnL62QPkVUbp-18" value="palabraMayor" style="shape=document;whiteSpace=wrap;html=1;boundedLbl=1;" vertex="1" parent="WIyWlLk6GJQsqaUBKTNV-1">
          <mxGeometry x="200" y="1220" width="120" height="40" as="geometry" />
        </mxCell>
        <mxCell id="TDjgzzHBPnL62QPkVUbp-26" value="&lt;div&gt;Crear un algoritmo para obtener el país con mayor número de letras a partir de un arreglo.&lt;/div&gt;&lt;div&gt;[&quot;México&quot;, &quot;Guatemala&quot;, &quot;El Salvador&quot;,&quot;Panamá&quot;]&lt;/div&gt;&lt;div&gt;&lt;br&gt;&lt;/div&gt;&lt;div&gt;1. Crear diagrama de flujo&lt;/div&gt;&lt;div&gt;2. Crear pseudocódigo&lt;/div&gt;&lt;div&gt;3. Programar el algoritmo en JS&lt;/div&gt;&lt;div&gt;&lt;br&gt;&lt;/div&gt;&lt;div&gt;&lt;br&gt;&lt;/div&gt;&lt;div&gt;Inicio&lt;/div&gt;&lt;div&gt;Leer String paises = [&quot;México&quot;, &quot;Guatemala&quot;, &quot;El Salvador&quot;,&quot;Panamá&quot;]&lt;span style=&quot;&quot;&gt;&lt;/span&gt;&lt;/div&gt;&lt;div&gt;&lt;span style=&quot;&quot;&gt;&lt;span style=&quot;&quot;&gt;&lt;span style=&quot;white-space: pre;&quot;&gt;&amp;nbsp;&amp;nbsp;&amp;nbsp;&amp;nbsp;&lt;/span&gt;&lt;/span&gt;Int palabraMayor = paises[0]&lt;/span&gt;&lt;/div&gt;&lt;div&gt;&lt;span style=&quot;&quot;&gt;&lt;span style=&quot;&quot;&gt;&lt;span style=&quot;white-space: pre;&quot;&gt;&amp;nbsp;&amp;nbsp;&amp;nbsp;&amp;nbsp;&lt;/span&gt;&lt;/span&gt;Int cantidadLetrasMayor = palabraMayor.length&lt;/span&gt;&lt;/div&gt;&lt;div&gt;&lt;span style=&quot;&quot;&gt;&lt;span style=&quot;&quot;&gt;&lt;span style=&quot;white-space: pre;&quot;&gt;&amp;nbsp;&amp;nbsp;&amp;nbsp;&amp;nbsp;&lt;/span&gt;&lt;/span&gt;Int cantidadLetras = 0&lt;/span&gt;&lt;/div&gt;&lt;div&gt;&lt;span style=&quot;&quot;&gt;&lt;span style=&quot;&quot;&gt;&lt;span style=&quot;white-space: pre;&quot;&gt;&amp;nbsp;&amp;nbsp;&amp;nbsp;&amp;nbsp;&lt;/span&gt;&lt;/span&gt;Int i = 0&lt;/span&gt;&lt;/div&gt;&lt;div&gt;&lt;br&gt;&lt;/div&gt;&lt;div&gt;&lt;span style=&quot;&quot;&gt;&lt;span style=&quot;&quot;&gt;&lt;span style=&quot;white-space: pre;&quot;&gt;&amp;nbsp;&amp;nbsp;&amp;nbsp;&amp;nbsp;&lt;/span&gt;&lt;/span&gt;desde i &amp;lt; paises.length entonces:&lt;/span&gt;&lt;/div&gt;&lt;div&gt;&lt;span style=&quot;&quot;&gt;&lt;span style=&quot;&quot;&gt;&lt;span style=&quot;white-space: pre;&quot;&gt;&amp;nbsp;&amp;nbsp;&amp;nbsp;&amp;nbsp;&lt;/span&gt;&lt;span style=&quot;white-space: pre;&quot;&gt;&amp;nbsp;&amp;nbsp;&amp;nbsp;&amp;nbsp;&lt;/span&gt;&lt;/span&gt;cantidadLetras = paises[i].length&lt;/span&gt;&lt;/div&gt;&lt;div&gt;&lt;span style=&quot;&quot;&gt;&lt;span style=&quot;&quot;&gt;&lt;span style=&quot;white-space: pre;&quot;&gt;&amp;nbsp;&amp;nbsp;&amp;nbsp;&amp;nbsp;&lt;/span&gt;&lt;span style=&quot;white-space: pre;&quot;&gt;&amp;nbsp;&amp;nbsp;&amp;nbsp;&amp;nbsp;&lt;/span&gt;&lt;/span&gt;si cantidadLetras &amp;gt; cantidadLetrasMayor entonces:&lt;/span&gt;&lt;/div&gt;&lt;div&gt;&lt;span style=&quot;&quot;&gt;&lt;span style=&quot;&quot;&gt;&lt;span style=&quot;white-space: pre;&quot;&gt;&amp;nbsp;&amp;nbsp;&amp;nbsp;&amp;nbsp;&lt;/span&gt;&lt;span style=&quot;white-space: pre;&quot;&gt;&amp;nbsp;&amp;nbsp;&amp;nbsp;&amp;nbsp;&lt;/span&gt;&lt;span style=&quot;white-space: pre;&quot;&gt;&amp;nbsp;&amp;nbsp;&amp;nbsp;&amp;nbsp;&lt;/span&gt;&lt;/span&gt;palabraMayor = paises[i]&lt;/span&gt;&lt;/div&gt;&lt;div&gt;&lt;span style=&quot;&quot;&gt;&lt;span style=&quot;&quot;&gt;&lt;span style=&quot;white-space: pre;&quot;&gt;&amp;nbsp;&amp;nbsp;&amp;nbsp;&amp;nbsp;&lt;/span&gt;&lt;span style=&quot;white-space: pre;&quot;&gt;&amp;nbsp;&amp;nbsp;&amp;nbsp;&amp;nbsp;&lt;/span&gt;&lt;span style=&quot;white-space: pre;&quot;&gt;&amp;nbsp;&amp;nbsp;&amp;nbsp;&amp;nbsp;&lt;/span&gt;&lt;/span&gt;cantidadLetrasMayor = cantidadLetras&lt;/span&gt;&lt;/div&gt;&lt;div&gt;&lt;span style=&quot;&quot;&gt;&lt;span style=&quot;&quot;&gt;&lt;span style=&quot;white-space: pre;&quot;&gt;&amp;nbsp;&amp;nbsp;&amp;nbsp;&amp;nbsp;&lt;/span&gt;&lt;span style=&quot;white-space: pre;&quot;&gt;&amp;nbsp;&amp;nbsp;&amp;nbsp;&amp;nbsp;&lt;/span&gt;&lt;/span&gt;i++&lt;/span&gt;&lt;/div&gt;&lt;div&gt;&lt;span style=&quot;&quot;&gt;&lt;span style=&quot;&quot;&gt;&lt;span style=&quot;white-space: pre;&quot;&gt;&amp;nbsp;&amp;nbsp;&amp;nbsp;&amp;nbsp;&lt;/span&gt;&lt;/span&gt;fin_desde&lt;/span&gt;&lt;/div&gt;&lt;div&gt;&lt;br&gt;&lt;/div&gt;&lt;div&gt;&lt;span style=&quot;&quot;&gt;&lt;span style=&quot;&quot;&gt;&lt;span style=&quot;white-space: pre;&quot;&gt;&amp;nbsp;&amp;nbsp;&amp;nbsp;&amp;nbsp;&lt;/span&gt;&lt;/span&gt;imprimir palabraMayor&lt;/span&gt;&lt;/div&gt;&lt;div&gt;Fin&lt;/div&gt;" style="text;strokeColor=none;align=left;fillColor=none;html=1;verticalAlign=middle;whiteSpace=wrap;rounded=0;" vertex="1" parent="WIyWlLk6GJQsqaUBKTNV-1">
          <mxGeometry x="40" y="85" width="740" height="400" as="geometry" />
        </mxCell>
        <mxCell id="TDjgzzHBPnL62QPkVUbp-27" value="&lt;b style=&quot;font-size: 34px;&quot;&gt;&lt;font style=&quot;font-size: 34px;&quot;&gt;Ejercicio 3&lt;/font&gt;&lt;/b&gt;" style="text;strokeColor=none;align=left;fillColor=none;html=1;verticalAlign=middle;whiteSpace=wrap;rounded=0;fontSize=34;" vertex="1" parent="WIyWlLk6GJQsqaUBKTNV-1">
          <mxGeometry x="40" y="40" width="200" height="30" as="geometry" />
        </mxCell>
      </root>
    </mxGraphModel>
  </diagram>
</mxfile>
